<mxfile host="app.diagrams.net" modified="2022-11-16T05:03:54.890Z" agent="5.0 (Windows)" etag="lwU4gARpTbpf-34RSOgn" version="20.5.3" type="github">
  <diagram id="C5RBs43oDa-KdzZeNtuy" name="Page-1">
    <mxGraphModel dx="1038" dy="564" grid="1" gridSize="10" guides="1" tooltips="1" connect="1" arrows="1" fold="1" page="1" pageScale="1" pageWidth="827" pageHeight="1169" math="0" shadow="0">
      <root>
        <mxCell id="WIyWlLk6GJQsqaUBKTNV-0" />
        <mxCell id="WIyWlLk6GJQsqaUBKTNV-1" parent="WIyWlLk6GJQsqaUBKTNV-0" />
        <mxCell id="tk-0zF5C6ERm4UmZNoEQ-0" value="&lt;font style=&quot;font-size: 14px;&quot;&gt;E-commerce&lt;/font&gt;" style="ellipse;whiteSpace=wrap;html=1;aspect=fixed;" vertex="1" parent="WIyWlLk6GJQsqaUBKTNV-1">
          <mxGeometry x="390" y="145" width="90" height="90" as="geometry" />
        </mxCell>
        <mxCell id="tk-0zF5C6ERm4UmZNoEQ-1" value="&lt;font style=&quot;font-size: 14px;&quot;&gt;Seller&lt;/font&gt;" style="rounded=0;whiteSpace=wrap;html=1;" vertex="1" parent="WIyWlLk6GJQsqaUBKTNV-1">
          <mxGeometry x="140" y="160" width="120" height="60" as="geometry" />
        </mxCell>
        <mxCell id="tk-0zF5C6ERm4UmZNoEQ-2" value="&lt;font style=&quot;font-size: 14px;&quot;&gt;User&lt;/font&gt;" style="rounded=0;whiteSpace=wrap;html=1;" vertex="1" parent="WIyWlLk6GJQsqaUBKTNV-1">
          <mxGeometry x="570" y="150" width="120" height="60" as="geometry" />
        </mxCell>
        <mxCell id="tk-0zF5C6ERm4UmZNoEQ-3" value="" style="curved=1;endArrow=classic;html=1;rounded=0;fontSize=14;exitX=0.5;exitY=1;exitDx=0;exitDy=0;entryX=0.433;entryY=1.067;entryDx=0;entryDy=0;entryPerimeter=0;" edge="1" parent="WIyWlLk6GJQsqaUBKTNV-1" source="tk-0zF5C6ERm4UmZNoEQ-0" target="tk-0zF5C6ERm4UmZNoEQ-1">
          <mxGeometry width="50" height="50" relative="1" as="geometry">
            <mxPoint x="370" y="320" as="sourcePoint" />
            <mxPoint x="230" y="310" as="targetPoint" />
            <Array as="points">
              <mxPoint x="300" y="280" />
            </Array>
          </mxGeometry>
        </mxCell>
        <mxCell id="tk-0zF5C6ERm4UmZNoEQ-4" value="Login" style="text;html=1;strokeColor=none;fillColor=none;align=center;verticalAlign=middle;whiteSpace=wrap;rounded=0;fontSize=14;" vertex="1" parent="WIyWlLk6GJQsqaUBKTNV-1">
          <mxGeometry x="299.5" y="130" width="49" height="30" as="geometry" />
        </mxCell>
        <mxCell id="tk-0zF5C6ERm4UmZNoEQ-6" value="" style="curved=1;endArrow=classic;html=1;rounded=0;fontSize=14;exitX=0.5;exitY=0;exitDx=0;exitDy=0;entryX=0.422;entryY=-0.033;entryDx=0;entryDy=0;entryPerimeter=0;" edge="1" parent="WIyWlLk6GJQsqaUBKTNV-1" source="tk-0zF5C6ERm4UmZNoEQ-1" target="tk-0zF5C6ERm4UmZNoEQ-0">
          <mxGeometry width="50" height="50" relative="1" as="geometry">
            <mxPoint x="370" y="320" as="sourcePoint" />
            <mxPoint x="420" y="270" as="targetPoint" />
            <Array as="points">
              <mxPoint x="310" y="100" />
            </Array>
          </mxGeometry>
        </mxCell>
        <mxCell id="tk-0zF5C6ERm4UmZNoEQ-7" value="Login Confirmation" style="text;html=1;strokeColor=none;fillColor=none;align=center;verticalAlign=middle;whiteSpace=wrap;rounded=0;fontSize=14;" vertex="1" parent="WIyWlLk6GJQsqaUBKTNV-1">
          <mxGeometry x="269" y="220" width="110" height="30" as="geometry" />
        </mxCell>
        <mxCell id="tk-0zF5C6ERm4UmZNoEQ-8" value="" style="curved=1;endArrow=classic;html=1;rounded=0;fontSize=14;exitX=0.5;exitY=0;exitDx=0;exitDy=0;entryX=0.222;entryY=0.056;entryDx=0;entryDy=0;entryPerimeter=0;" edge="1" parent="WIyWlLk6GJQsqaUBKTNV-1" source="tk-0zF5C6ERm4UmZNoEQ-1" target="tk-0zF5C6ERm4UmZNoEQ-0">
          <mxGeometry width="50" height="50" relative="1" as="geometry">
            <mxPoint x="210" y="170" as="sourcePoint" />
            <mxPoint x="320" y="60" as="targetPoint" />
            <Array as="points">
              <mxPoint x="320" y="40" />
            </Array>
          </mxGeometry>
        </mxCell>
        <mxCell id="tk-0zF5C6ERm4UmZNoEQ-9" value="&lt;div&gt;add/remove/update&lt;/div&gt;&lt;div&gt;item&lt;br&gt;&lt;/div&gt;" style="text;html=1;strokeColor=none;fillColor=none;align=center;verticalAlign=middle;whiteSpace=wrap;rounded=0;fontSize=14;" vertex="1" parent="WIyWlLk6GJQsqaUBKTNV-1">
          <mxGeometry x="200" y="60" width="160" height="40" as="geometry" />
        </mxCell>
        <mxCell id="tk-0zF5C6ERm4UmZNoEQ-10" value="" style="curved=1;endArrow=classic;html=1;rounded=0;fontSize=14;exitX=0.5;exitY=0;exitDx=0;exitDy=0;entryX=0.767;entryY=0.056;entryDx=0;entryDy=0;entryPerimeter=0;" edge="1" parent="WIyWlLk6GJQsqaUBKTNV-1" source="tk-0zF5C6ERm4UmZNoEQ-2" target="tk-0zF5C6ERm4UmZNoEQ-0">
          <mxGeometry width="50" height="50" relative="1" as="geometry">
            <mxPoint x="693.04" y="67.99000000000001" as="sourcePoint" />
            <mxPoint x="450" y="57.00999999999999" as="targetPoint" />
            <Array as="points">
              <mxPoint x="540" y="140" />
            </Array>
          </mxGeometry>
        </mxCell>
        <mxCell id="tk-0zF5C6ERm4UmZNoEQ-11" value="Login" style="text;html=1;strokeColor=none;fillColor=none;align=center;verticalAlign=middle;whiteSpace=wrap;rounded=0;fontSize=14;" vertex="1" parent="WIyWlLk6GJQsqaUBKTNV-1">
          <mxGeometry x="500" y="145" width="49" height="30" as="geometry" />
        </mxCell>
        <mxCell id="tk-0zF5C6ERm4UmZNoEQ-13" value="" style="curved=1;endArrow=classic;html=1;rounded=0;fontSize=14;exitX=0.5;exitY=0;exitDx=0;exitDy=0;entryX=0.5;entryY=0;entryDx=0;entryDy=0;" edge="1" parent="WIyWlLk6GJQsqaUBKTNV-1" source="tk-0zF5C6ERm4UmZNoEQ-2" target="tk-0zF5C6ERm4UmZNoEQ-0">
          <mxGeometry width="50" height="50" relative="1" as="geometry">
            <mxPoint x="660" y="130" as="sourcePoint" />
            <mxPoint x="869.98" y="120.03999999999996" as="targetPoint" />
            <Array as="points">
              <mxPoint x="530" y="20" />
            </Array>
          </mxGeometry>
        </mxCell>
        <mxCell id="tk-0zF5C6ERm4UmZNoEQ-15" value="&lt;div&gt;buy/view&lt;/div&gt;&lt;div&gt;product&lt;br&gt;&lt;/div&gt;" style="text;html=1;strokeColor=none;fillColor=none;align=center;verticalAlign=middle;whiteSpace=wrap;rounded=0;fontSize=14;" vertex="1" parent="WIyWlLk6GJQsqaUBKTNV-1">
          <mxGeometry x="449.5" y="90" width="150" height="30" as="geometry" />
        </mxCell>
        <mxCell id="tk-0zF5C6ERm4UmZNoEQ-20" value="" style="curved=1;endArrow=classic;html=1;rounded=0;fontSize=14;entryX=0.342;entryY=1.033;entryDx=0;entryDy=0;entryPerimeter=0;exitX=0.5;exitY=1;exitDx=0;exitDy=0;" edge="1" parent="WIyWlLk6GJQsqaUBKTNV-1" source="tk-0zF5C6ERm4UmZNoEQ-0" target="tk-0zF5C6ERm4UmZNoEQ-1">
          <mxGeometry width="50" height="50" relative="1" as="geometry">
            <mxPoint x="430" y="240" as="sourcePoint" />
            <mxPoint x="170.00000000000003" y="270" as="targetPoint" />
            <Array as="points">
              <mxPoint x="270" y="360" />
            </Array>
          </mxGeometry>
        </mxCell>
        <mxCell id="tk-0zF5C6ERm4UmZNoEQ-21" value="Product Confirmation" style="text;html=1;strokeColor=none;fillColor=none;align=center;verticalAlign=middle;whiteSpace=wrap;rounded=0;fontSize=14;" vertex="1" parent="WIyWlLk6GJQsqaUBKTNV-1">
          <mxGeometry x="236.5" y="260" width="112" height="30" as="geometry" />
        </mxCell>
        <mxCell id="tk-0zF5C6ERm4UmZNoEQ-22" value="" style="curved=1;endArrow=classic;html=1;rounded=0;fontSize=14;exitX=0.5;exitY=1;exitDx=0;exitDy=0;entryX=0.5;entryY=1;entryDx=0;entryDy=0;" edge="1" parent="WIyWlLk6GJQsqaUBKTNV-1" source="tk-0zF5C6ERm4UmZNoEQ-0" target="tk-0zF5C6ERm4UmZNoEQ-2">
          <mxGeometry width="50" height="50" relative="1" as="geometry">
            <mxPoint x="462.02" y="320" as="sourcePoint" />
            <mxPoint x="690" y="302.03" as="targetPoint" />
            <Array as="points">
              <mxPoint x="572" y="300" />
            </Array>
          </mxGeometry>
        </mxCell>
        <mxCell id="tk-0zF5C6ERm4UmZNoEQ-23" value="Login Confirmation" style="text;html=1;strokeColor=none;fillColor=none;align=center;verticalAlign=middle;whiteSpace=wrap;rounded=0;fontSize=14;" vertex="1" parent="WIyWlLk6GJQsqaUBKTNV-1">
          <mxGeometry x="469.5" y="220" width="110" height="30" as="geometry" />
        </mxCell>
        <mxCell id="tk-0zF5C6ERm4UmZNoEQ-25" value="" style="curved=1;endArrow=classic;html=1;rounded=0;fontSize=14;exitX=0.5;exitY=1;exitDx=0;exitDy=0;entryX=0.75;entryY=1;entryDx=0;entryDy=0;" edge="1" parent="WIyWlLk6GJQsqaUBKTNV-1" source="tk-0zF5C6ERm4UmZNoEQ-0" target="tk-0zF5C6ERm4UmZNoEQ-2">
          <mxGeometry width="50" height="50" relative="1" as="geometry">
            <mxPoint x="449.5" y="370" as="sourcePoint" />
            <mxPoint x="677.48" y="352.03" as="targetPoint" />
            <Array as="points">
              <mxPoint x="540" y="390" />
            </Array>
          </mxGeometry>
        </mxCell>
        <mxCell id="tk-0zF5C6ERm4UmZNoEQ-26" value="Product Confirmation" style="text;html=1;strokeColor=none;fillColor=none;align=center;verticalAlign=middle;whiteSpace=wrap;rounded=0;fontSize=14;" vertex="1" parent="WIyWlLk6GJQsqaUBKTNV-1">
          <mxGeometry x="480" y="270" width="112" height="30" as="geometry" />
        </mxCell>
        <mxCell id="tk-0zF5C6ERm4UmZNoEQ-29" value="0" style="text;html=1;strokeColor=none;fillColor=none;align=center;verticalAlign=middle;whiteSpace=wrap;rounded=0;fontSize=14;" vertex="1" parent="WIyWlLk6GJQsqaUBKTNV-1">
          <mxGeometry x="405" y="200" width="60" height="30" as="geometry" />
        </mxCell>
      </root>
    </mxGraphModel>
  </diagram>
</mxfile>
